<svg id="base" xmlns="http://www.w3.org/2000/svg" viewBox="0 0 133.32 40.9"><defs><style>.cls-1{fill:#00a5b4;}.cls-2{fill:#fbaf33;}.cls-3{fill:#d85750;}.cls-4{fill:#58595b;}</style></defs><title>logo-pontotel</title><path class="cls-1" d="M89.52,26.85a0.83,0.83,0,0,1-.59-0.24L83.12,20.8V9.15a0.83,0.83,0,1,1,1.67,0v11l5.32,5.32A0.83,0.83,0,0,1,89.52,26.85Z"/><path class="cls-2" d="M100.41,12.87a0.42,0.42,0,0,1-.18-0.8l1.69-.83a0.42,0.42,0,1,1,.37.75l-1.69.83A0.42,0.42,0,0,1,100.41,12.87Z"/><path class="cls-2" d="M99.48,11.21a0.42,0.42,0,0,1-.22-0.77l1.59-1a0.42,0.42,0,0,1,.45.71l-1.59,1A0.42,0.42,0,0,1,99.48,11.21Z"/><path class="cls-2" d="M98.38,9.65a0.42,0.42,0,0,1-.26-0.75L99.6,7.75a0.42,0.42,0,1,1,.52.66L98.64,9.57A0.42,0.42,0,0,1,98.38,9.65Z"/><path class="cls-3" d="M69.71,34.83a0.42,0.42,0,0,1-.29-0.72l1.35-1.31a0.42,0.42,0,1,1,.58.6L70,34.71A0.42,0.42,0,0,1,69.71,34.83Z"/><path class="cls-2" d="M97.13,8.22a0.42,0.42,0,0,1-.29-0.72l1.35-1.31a0.42,0.42,0,1,1,.58.6L97.43,8.1A0.42,0.42,0,0,1,97.13,8.22Z"/><path class="cls-3" d="M69.71,34.83a0.42,0.42,0,0,1-.29-0.72l1.35-1.31a0.42,0.42,0,1,1,.58.6L70,34.71A0.42,0.42,0,0,1,69.71,34.83Z"/><path class="cls-2" d="M95.74,6.93a0.42,0.42,0,0,1-.32-0.69l1.2-1.44a0.42,0.42,0,1,1,.64.54l-1.2,1.44A0.42,0.42,0,0,1,95.74,6.93Z"/><path class="cls-3" d="M71.25,36.26a0.42,0.42,0,0,1-.32-0.69l1.2-1.44a0.42,0.42,0,1,1,.64.54l-1.2,1.44A0.42,0.42,0,0,1,71.25,36.26Z"/><path class="cls-3" d="M72.93,37.51a0.42,0.42,0,0,1-.35-0.65l1-1.56a0.42,0.42,0,1,1,.7.47l-1,1.56A0.42,0.42,0,0,1,72.93,37.51Z"/><path class="cls-2" d="M94.22,5.79a0.42,0.42,0,0,1-.35-0.65l1-1.56a0.42,0.42,0,1,1,.7.47l-1,1.56A0.42,0.42,0,0,1,94.22,5.79Z"/><path class="cls-2" d="M92.59,4.81a0.42,0.42,0,0,1-.37-0.62L93.1,2.54a0.42,0.42,0,1,1,.74.39L93,4.59A0.42,0.42,0,0,1,92.59,4.81Z"/><path class="cls-3" d="M74.73,38.59A0.42,0.42,0,0,1,74.36,38l0.88-1.66a0.42,0.42,0,1,1,.74.39L75.1,38.37A0.42,0.42,0,0,1,74.73,38.59Z"/><path class="cls-2" d="M90.86,4a0.42,0.42,0,0,1-.39-0.58l0.7-1.74A0.42,0.42,0,0,1,92,2l-0.7,1.74A0.42,0.42,0,0,1,90.86,4Z"/><path class="cls-3" d="M76.63,39.47a0.42,0.42,0,0,1-.39-0.58l0.7-1.74a0.42,0.42,0,1,1,.78.31L77,39.21A0.42,0.42,0,0,1,76.63,39.47Z"/><path class="cls-3" d="M78.62,40.15l-0.11,0a0.42,0.42,0,0,1-.29-0.52l0.51-1.81a0.42,0.42,0,1,1,.81.23L79,39.85A0.42,0.42,0,0,1,78.62,40.15Z"/><path class="cls-2" d="M89.06,3.4l-0.11,0a0.42,0.42,0,0,1-.29-0.52l0.51-1.81a0.42,0.42,0,0,1,.81.23L89.47,3.09A0.42,0.42,0,0,1,89.06,3.4Z"/><path class="cls-3" d="M80.66,40.62H80.59a0.42,0.42,0,0,1-.34-0.48l0.32-1.85a0.42,0.42,0,1,1,.83.14l-0.32,1.85A0.42,0.42,0,0,1,80.66,40.62Z"/><path class="cls-2" d="M87.21,3H87.14a0.42,0.42,0,0,1-.34-0.48l0.32-1.85a0.42,0.42,0,0,1,.83.14L87.62,2.62A0.42,0.42,0,0,1,87.21,3Z"/><path class="cls-3" d="M82.75,40.87h0a0.42,0.42,0,0,1-.39-0.45l0.13-1.88a0.41,0.41,0,0,1,.45-0.39,0.42,0.42,0,0,1,.39.45l-0.13,1.88A0.42,0.42,0,0,1,82.75,40.87Z"/><path class="cls-2" d="M85.32,2.75h0A0.42,0.42,0,0,1,84.9,2.3L85,0.42a0.42,0.42,0,1,1,.84.06L85.74,2.35A0.42,0.42,0,0,1,85.32,2.75Z"/><path class="cls-2" d="M83.42,2.72A0.42,0.42,0,0,1,83,2.31L82.93,0.44a0.42,0.42,0,1,1,.84,0l0.07,1.88a0.42,0.42,0,0,1-.4.43h0Z"/><path class="cls-3" d="M84.84,40.9a0.42,0.42,0,0,1-.42-0.4l-0.07-1.88a0.42,0.42,0,1,1,.84,0l0.07,1.88a0.42,0.42,0,0,1-.4.43h0Z"/><path class="cls-3" d="M102.25,20.19a0.42,0.42,0,0,1,0-.84l1.88-.07a0.42,0.42,0,0,1,0,.84l-1.88.07h0Z"/><path class="cls-3" d="M104.1,22.22h0l-1.88-.13a0.42,0.42,0,1,1,.06-0.84l1.88,0.13A0.42,0.42,0,0,1,104.1,22.22Z"/><path class="cls-2" d="M81.53,2.89a0.42,0.42,0,0,1-.41-0.36L80.85,0.67A0.42,0.42,0,1,1,81.68.55l0.27,1.86a0.42,0.42,0,0,1-.36.47H81.53Z"/><path class="cls-3" d="M86.93,40.72a0.42,0.42,0,0,1-.41-0.36L86.25,38.5a0.42,0.42,0,0,1,.83-0.12l0.27,1.86a0.42,0.42,0,0,1-.36.47H86.93Z"/><path class="cls-2" d="M79.66,3.25a0.42,0.42,0,0,1-.41-0.32L78.8,1.11a0.42,0.42,0,1,1,.81-0.2l0.46,1.82a0.42,0.42,0,0,1-.3.51h-0.1Z"/><path class="cls-3" d="M89,40.31A0.42,0.42,0,0,1,88.59,40l-0.46-1.82a0.42,0.42,0,0,1,.81-0.2l0.46,1.82a0.42,0.42,0,0,1-.3.51H89Z"/><path class="cls-2" d="M77.84,3.81a0.42,0.42,0,0,1-.39-0.27L76.8,1.77a0.42,0.42,0,0,1,.79-0.29l0.65,1.76a0.42,0.42,0,0,1-.25.54Z"/><path class="cls-3" d="M91,39.69a0.42,0.42,0,0,1-.39-0.27L90,37.65a0.42,0.42,0,0,1,.79-0.29l0.65,1.76a0.42,0.42,0,0,1-.25.54Z"/><path class="cls-2" d="M76.1,4.56a0.42,0.42,0,0,1-.38-0.23L74.89,2.64a0.42,0.42,0,0,1,.75-0.37L76.47,4A0.42,0.42,0,0,1,76.1,4.56Z"/><path class="cls-3" d="M92.93,38.87a0.42,0.42,0,0,1-.38-0.23l-0.83-1.69a0.42,0.42,0,0,1,.75-0.37l0.83,1.69A0.42,0.42,0,0,1,92.93,38.87Z"/><path class="cls-2" d="M74.44,5.49a0.42,0.42,0,0,1-.36-0.2l-1-1.59a0.42,0.42,0,1,1,.71-0.45l1,1.59A0.42,0.42,0,0,1,74.44,5.49Z"/><path class="cls-3" d="M94.76,37.84a0.42,0.42,0,0,1-.36-0.2l-1-1.59a0.42,0.42,0,1,1,.71-0.45l1,1.59A0.42,0.42,0,0,1,94.76,37.84Z"/><path class="cls-2" d="M72.88,6.58a0.42,0.42,0,0,1-.33-0.16L71.39,4.95a0.42,0.42,0,0,1,.66-0.52l1.16,1.48A0.42,0.42,0,0,1,72.88,6.58Z"/><path class="cls-3" d="M96.47,36.64a0.42,0.42,0,0,1-.33-0.16L95,35a0.42,0.42,0,0,1,.66-0.52L96.8,36A0.42,0.42,0,0,1,96.47,36.64Z"/><path class="cls-3" d="M98.06,35.26a0.42,0.42,0,0,1-.3-0.13l-1.31-1.35A0.42,0.42,0,1,1,97,33.2l1.31,1.35A0.42,0.42,0,0,1,98.06,35.26Z"/><path class="cls-2" d="M71.45,7.83a0.42,0.42,0,0,1-.3-0.13L69.84,6.36a0.42,0.42,0,0,1,.6-0.58l1.31,1.35A0.42,0.42,0,0,1,71.45,7.83Z"/><path class="cls-3" d="M99.48,33.72a0.42,0.42,0,0,1-.27-0.1l-1.44-1.2a0.42,0.42,0,0,1,.54-0.64L99.75,33A0.42,0.42,0,0,1,99.48,33.72Z"/><path class="cls-2" d="M70.15,9.23a0.42,0.42,0,0,1-.27-0.1l-1.44-1.2A0.42,0.42,0,1,1,69,7.28l1.44,1.2A0.42,0.42,0,0,1,70.15,9.23Z"/><path class="cls-2" d="M69,10.75a0.42,0.42,0,0,1-.23-0.07l-1.56-1a0.42,0.42,0,0,1,.47-0.7l1.56,1A0.42,0.42,0,0,1,69,10.75Z"/><path class="cls-3" d="M100.74,32a0.42,0.42,0,0,1-.23-0.07l-1.56-1a0.42,0.42,0,0,1,.47-0.7l1.56,1A0.42,0.42,0,0,1,100.74,32Z"/><path class="cls-3" d="M101.82,30.24a0.42,0.42,0,0,1-.2,0L100,29.31a0.42,0.42,0,0,1,.39-0.74L102,29.45A0.42,0.42,0,0,1,101.82,30.24Z"/><path class="cls-2" d="M68,12.38a0.42,0.42,0,0,1-.2,0l-1.66-.88a0.42,0.42,0,1,1,.39-0.74l1.66,0.88A0.42,0.42,0,0,1,68,12.38Z"/><path class="cls-2" d="M67.24,14.11a0.42,0.42,0,0,1-.16,0l-1.74-.7a0.42,0.42,0,0,1,.31-0.78l1.74,0.7A0.42,0.42,0,0,1,67.24,14.11Z"/><path class="cls-3" d="M102.7,28.34a0.42,0.42,0,0,1-.16,0l-1.74-.7a0.42,0.42,0,0,1,.31-0.78l1.74,0.7A0.42,0.42,0,0,1,102.7,28.34Z"/><path class="cls-2" d="M66.62,15.9l-0.11,0-1.81-.51a0.42,0.42,0,0,1,.23-0.81l1.81,0.51A0.42,0.42,0,0,1,66.62,15.9Z"/><path class="cls-3" d="M103.38,26.35l-0.11,0-1.81-.51a0.42,0.42,0,1,1,.23-0.81l1.81,0.51A0.42,0.42,0,0,1,103.38,26.35Z"/><path class="cls-2" d="M66.2,17.76H66.13l-1.85-.32a0.42,0.42,0,1,1,.14-0.83l1.85,0.32A0.42,0.42,0,0,1,66.2,17.76Z"/><path class="cls-3" d="M103.85,24.31h-0.07L101.92,24a0.42,0.42,0,0,1,.14-0.83l1.85,0.32A0.42,0.42,0,0,1,103.85,24.31Z"/><path class="cls-4" d="M8.72,14.24a8.05,8.05,0,0,1,3.09.53,5.77,5.77,0,0,1,2.07,1.39,5.36,5.36,0,0,1,1.16,2,7.38,7.38,0,0,1,0,4.59,5.34,5.34,0,0,1-1.16,2,5.77,5.77,0,0,1-2.07,1.39,8.05,8.05,0,0,1-3.09.53H4.25v6.93H0V14.24H8.72ZM7.55,23.33A8.88,8.88,0,0,0,9,23.23a3.27,3.27,0,0,0,1.19-.42A2.29,2.29,0,0,0,11,21.93a3.09,3.09,0,0,0,.31-1.49A3.09,3.09,0,0,0,11,18.95a2.29,2.29,0,0,0-.83-0.88A3.29,3.29,0,0,0,9,17.65a8.91,8.91,0,0,0-1.41-.11H4.25v5.79h3.3Z"/><path class="cls-4" d="M17.05,23.54a6.4,6.4,0,0,1,3.73-3.82,8,8,0,0,1,3-.53,8.1,8.1,0,0,1,3,.53,6.37,6.37,0,0,1,3.75,3.82,8.59,8.59,0,0,1,.51,3,8.48,8.48,0,0,1-.51,3A6.58,6.58,0,0,1,29,31.93a6.37,6.37,0,0,1-2.29,1.48,8.3,8.3,0,0,1-3,.51,8.19,8.19,0,0,1-3-.51,6.39,6.39,0,0,1-2.27-1.48,6.56,6.56,0,0,1-1.46-2.31,8.47,8.47,0,0,1-.51-3A8.58,8.58,0,0,1,17.05,23.54Zm3.49,4.68a4.35,4.35,0,0,0,.55,1.43,3,3,0,0,0,1,1,3.18,3.18,0,0,0,1.62.38,3.26,3.26,0,0,0,1.64-.38,2.92,2.92,0,0,0,1.06-1A4.37,4.37,0,0,0,27,28.22a8.21,8.21,0,0,0,.16-1.64A8.41,8.41,0,0,0,27,24.93a4.23,4.23,0,0,0-.55-1.43,3.09,3.09,0,0,0-1.06-1,3.17,3.17,0,0,0-1.64-.39A3,3,0,0,0,21.1,23.5a4.2,4.2,0,0,0-.55,1.43,8.41,8.41,0,0,0-.16,1.65A8.21,8.21,0,0,0,20.54,28.22Z"/><path class="cls-4" d="M36.48,19.57v1.95h0.08a4.41,4.41,0,0,1,1.89-1.77,5.48,5.48,0,0,1,2.38-.55,6.53,6.53,0,0,1,2.53.42,3.75,3.75,0,0,1,1.56,1.16,4.5,4.5,0,0,1,.8,1.81A11.28,11.28,0,0,1,46,25v8.61H42.11v-7.9a4.91,4.91,0,0,0-.54-2.58,2.1,2.1,0,0,0-1.92-.85,2.66,2.66,0,0,0-2.27.93,5.19,5.19,0,0,0-.7,3.07v7.33H32.83v-14h3.65Z"/><path class="cls-4" d="M55.89,19.57v2.57H53.08v6.93a1.88,1.88,0,0,0,.32,1.3,1.88,1.88,0,0,0,1.3.32l0.62,0a5.19,5.19,0,0,0,.57-0.08v3a9.22,9.22,0,0,1-1.08.11l-1.16,0A11.24,11.24,0,0,1,52,33.58a4,4,0,0,1-1.41-.47,2.5,2.5,0,0,1-1-1,3.57,3.57,0,0,1-.35-1.71V22.14H46.9V19.57h2.33v-4.2h3.84v4.2h2.81Z"/><path class="cls-4" d="M57.14,23.54a6.4,6.4,0,0,1,3.73-3.82,8,8,0,0,1,3-.53,8.1,8.1,0,0,1,3,.53,6.37,6.37,0,0,1,3.75,3.82,8.59,8.59,0,0,1,.51,3,8.48,8.48,0,0,1-.51,3,6.58,6.58,0,0,1-1.46,2.31,6.37,6.37,0,0,1-2.29,1.48,8.3,8.3,0,0,1-3,.51,8.19,8.19,0,0,1-3-.51,6.39,6.39,0,0,1-2.27-1.48,6.56,6.56,0,0,1-1.46-2.31,8.47,8.47,0,0,1-.51-3A8.58,8.58,0,0,1,57.14,23.54Zm3.49,4.68a4.35,4.35,0,0,0,.55,1.43,3,3,0,0,0,1,1,3.18,3.18,0,0,0,1.62.38,3.26,3.26,0,0,0,1.64-.38,2.92,2.92,0,0,0,1.06-1,4.37,4.37,0,0,0,.55-1.43,8.21,8.21,0,0,0,.16-1.64,8.41,8.41,0,0,0-.16-1.65,4.23,4.23,0,0,0-.55-1.43,3.09,3.09,0,0,0-1.06-1,3.17,3.17,0,0,0-1.64-.39,3,3,0,0,0-2.67,1.41,4.2,4.2,0,0,0-.55,1.43,8.41,8.41,0,0,0-.16,1.65A8.21,8.21,0,0,0,60.63,28.22Z"/><path class="cls-4" d="M100.54,17.81V14.24h15.83v3.57h-5.79V33.56h-4.25V17.81h-5.79Z"/><path class="cls-4" d="M118.62,30.21a3.94,3.94,0,0,0,4.49.26,2.41,2.41,0,0,0,1-1.23h3.38a6.42,6.42,0,0,1-2.49,3.6A7.33,7.33,0,0,1,121,33.92a8,8,0,0,1-3-.53,6.18,6.18,0,0,1-2.25-1.5,6.77,6.77,0,0,1-1.42-2.33,8.52,8.52,0,0,1-.5-3,8.15,8.15,0,0,1,.51-2.92,6.76,6.76,0,0,1,3.72-3.9,7.24,7.24,0,0,1,2.91-.57,6.65,6.65,0,0,1,3.11.69,6.22,6.22,0,0,1,2.18,1.85,7.64,7.64,0,0,1,1.23,2.65,9.92,9.92,0,0,1,.27,3.11h-10.1A3.89,3.89,0,0,0,118.62,30.21ZM123,22.85a2.7,2.7,0,0,0-2.1-.76,3.34,3.34,0,0,0-1.53.31,2.91,2.91,0,0,0-1,.77,2.83,2.83,0,0,0-.51,1,4.4,4.4,0,0,0-.18.92h6.25A4.44,4.44,0,0,0,123,22.85Z"/><path class="cls-4" d="M133.32,14.24V33.56h-3.84V14.24h3.84Z"/></svg>